<svg width="188" height="46" viewBox="0 0 188 46" fill="none" xmlns="http://www.w3.org/2000/svg">
<path d="M87.1374 28.7683L92.256 12.0274H98.9995L90.9154 35.8791H83.6032L78.3221 19.7477L73.0411 35.8791H65.7289L57.6854 12.0274H64.5102L69.6287 28.687L74.9504 12.0274H81.7345L87.1374 28.7683ZM122.358 23.8923C122.361 24.612 122.32 25.3311 122.236 26.0459H105.337C105.987 29.4997 108.424 31.0031 111.43 31.0031C113.65 30.9686 115.79 30.1644 117.483 28.7277L121.22 32.8723C118.499 35.3509 115.046 36.5293 111.065 36.5293C103.752 36.5293 98.6745 31.572 98.6745 24.0142C98.6745 16.4564 103.59 11.4179 110.74 11.4179C117.646 11.3772 122.317 16.4564 122.358 23.8923ZM105.377 21.6575H115.939C115.33 18.61 113.502 16.9034 110.74 16.9034C107.693 16.9034 105.905 18.7319 105.337 21.6575H105.377ZM150.104 23.8923C150.104 31.0438 145.148 36.4886 138.567 36.4886C135.317 36.4886 133.123 35.229 131.539 33.3599V45.7124H125.161V11.9867H131.458V14.6685C133.001 12.7181 135.276 11.4179 138.567 11.4179C145.148 11.3772 150.104 16.7408 150.104 23.8923ZM131.214 23.8923C131.214 27.6306 133.732 30.4749 137.348 30.4749C141.126 30.4749 143.523 27.5899 143.523 23.8923C143.523 20.1947 141.167 17.3097 137.348 17.3097C133.692 17.3097 131.214 20.154 131.214 23.8923ZM160.463 4.18514C160.463 5.27897 160.028 6.32799 159.255 7.10145C158.482 7.8749 157.433 8.30942 156.339 8.30942C155.246 8.30942 154.197 7.8749 153.424 7.10145C152.651 6.32799 152.216 5.27897 152.216 4.18514C152.216 3.0967 152.648 2.05284 153.418 1.2832C154.187 0.513557 155.231 0.0811768 156.319 0.0811768C157.407 0.0811768 158.451 0.513557 159.22 1.2832C159.99 2.05284 160.422 3.0967 160.422 4.18514H160.463ZM159.528 35.7979H153.15V11.9867H159.569L159.528 35.7979ZM170.294 20.4791L179.231 12.0274H187.112L175.534 23.2015L187.152 35.7979H179.271L170.212 26.1678V35.8385H163.753V0.36561H170.212V20.4791H170.294Z" fill="white"/>
<path fill-rule="evenodd" clip-rule="evenodd" d="M37.8207 17.9192L37.9426 18.7319C38.0288 19.4056 38.0695 20.0844 38.0645 20.7635V22.1044C38.0469 22.9492 37.9654 23.7913 37.8207 24.6237C37.6803 25.3403 37.4903 26.0464 37.252 26.7366L36.4395 27.3055L36.3583 27.3868C35.3879 28.0447 34.3694 28.6288 33.3115 29.134L32.9053 29.2965C29.8284 30.6593 26.5005 31.3634 23.1354 31.3634C19.7703 31.3634 16.4424 30.6593 13.3654 29.2965L12.9592 29.134C11.9012 28.6289 10.7609 28.0042 9.79057 27.3461L8.9781 26.7366C8.75452 26.0589 8.57806 25.3665 8.44999 24.6643C8.2999 23.819 8.21839 22.9629 8.20625 22.1044V20.7635C8.20416 20.0979 8.24486 19.4329 8.32812 18.7725L8.44999 17.9192C8.59736 17.1735 8.80106 16.44 9.05935 15.725C9.424 14.7004 9.90084 13.7192 10.4812 12.7994C12.0766 10.2579 14.3997 8.25529 17.1483 7.05211C19.8969 5.84894 22.9438 5.50085 25.8928 6.05311C28.8419 6.60537 31.5566 8.03242 33.6839 10.1487C35.8111 12.2649 37.2526 14.9725 37.8207 17.9192ZM34.9771 24.705C35.1937 23.7449 35.6005 21.2378 35.2208 19.3414L34.8146 19.0569L30.9147 16.0501C30.1835 15.5219 29.0054 15.2781 28.4773 16.0501C28.1167 16.5773 26.0697 18.7344 24.6009 20.2823C23.919 21.0008 23.3618 21.5881 23.1557 21.82C22.8588 22.0974 22.478 22.268 22.0734 22.3047C21.6688 22.3415 21.2634 22.2425 20.9214 22.0232C19.9828 21.4103 19.0993 20.7169 18.2809 19.9509C17.3059 19.0569 16.7372 18.935 15.4372 19.5445L11.3749 21.3324L10.9686 21.5356V21.7794C10.968 22.7636 11.077 23.7449 11.2936 24.705L11.4155 24.7862L12.8373 25.6802C14.1011 26.3866 15.4354 26.9586 16.8184 27.3868C20.9185 28.6674 25.3116 28.6674 29.4117 27.3868C30.7947 26.9586 32.129 26.3866 33.3928 25.6802C33.9209 25.3957 34.4084 25.1113 34.8552 24.7862L34.9771 24.705ZM15.0374 15.8932C14.1315 14.5344 14.3127 12.0886 16.4868 10.6392C18.6609 9.18979 20.835 9.73331 21.8314 10.8204C22.8279 11.9074 22.7373 14.2626 20.835 15.9838C18.9327 17.7049 15.9433 17.252 15.0374 15.8932Z" fill="white"/>
<path d="M45.8235 15.8463C45.336 13.6521 43.9954 11.7829 41.7611 11.1328C41.5744 11.0691 41.3846 11.0148 41.1924 10.9703C40.0808 8.78179 38.5645 6.82392 36.7238 5.20034C34.4088 3.1273 31.6507 1.61083 28.6603 0.766723C25.6699 -0.0773884 22.5261 -0.226818 19.4691 0.329845C16.4122 0.886508 13.5228 2.13454 11.0216 3.97865C8.52046 5.82275 6.47367 8.21416 5.03755 10.9703C3.91746 11.201 2.88953 11.755 2.08089 12.5638C1.27225 13.3727 0.718361 14.4008 0.487727 15.5212C0.156155 17.1114 -0.00723805 18.7321 0.000245858 20.3566V21.9006C0.000245858 23.6479 0.28461 25.4764 1.42207 26.8173C1.9316 27.4717 2.99113 28.1625 3.7376 28.5239C4.10335 29.6845 4.56535 30.8126 5.1188 31.8964C4.48086 32.6962 3.89728 33.5378 3.37199 34.4157C3.94345 35.3929 4.58139 36.3297 5.28129 37.2194C7.3917 39.9519 10.1002 42.1642 13.1988 43.6864C16.2974 45.2085 19.7035 46 23.1556 46C26.6077 46 30.0139 45.2085 33.1124 43.6864C36.211 42.1642 38.9195 39.9519 41.0299 37.2194C41.7313 36.3165 42.3692 35.3661 42.9392 34.375C42.3978 33.5109 41.8008 32.6829 41.1518 31.8964C41.7044 30.8123 42.1664 29.6842 42.533 28.5239C42.533 28.4426 43.1423 28.2801 43.2236 28.1988C43.9181 27.811 44.5264 27.2856 45.011 26.6547C46.4328 24.8262 46.311 22.4695 46.311 20.3566C46.3203 18.8551 46.1705 17.3568 45.8641 15.8869L45.8235 15.8463ZM43.5486 21.8194C43.5486 22.3476 43.5486 22.8758 43.4673 23.3634C43.4431 23.7772 43.3288 24.1808 43.1323 24.5458C42.9358 24.9107 42.6619 25.2283 42.3299 25.4764C41.7476 25.9163 41.0269 26.1325 40.2987 26.0859L40.0956 26.8985C39.7893 28.017 39.3813 29.1051 38.8769 30.1492L38.0644 31.612L37.5363 32.4246C37.5363 32.384 37.5363 32.5059 37.5363 32.4246C38.2089 33.0978 38.8333 33.8175 39.405 34.5782C37.5686 37.1939 35.1296 39.3289 32.2942 40.8028C29.4589 42.2767 26.3104 43.0462 23.115 43.0462C19.9196 43.0462 16.7711 42.2767 13.9357 40.8028C11.1003 39.3289 8.66138 37.1939 6.82498 34.5782C7.3743 33.8487 8.01205 33.0751 8.65304 32.4246C7.39815 30.5571 6.48992 28.3568 5.97189 26.1671V26.0859C5.24412 26.1289 4.5246 25.913 3.94072 25.4764C3.42465 25.0955 3.05243 24.5514 2.88451 23.9323C2.73284 23.2251 2.67817 22.5006 2.72202 21.7787C2.67684 19.9683 2.81293 18.1578 3.12825 16.3745C3.22167 15.9239 3.37182 15.487 3.57511 15.0742C3.68482 14.8798 3.8216 14.7019 3.98134 14.546C4.12817 14.3928 4.29168 14.2565 4.46882 14.1397C4.83355 13.8881 5.24998 13.7215 5.68753 13.6521C6.06581 13.593 6.45188 13.6068 6.82498 13.6927C8.07916 10.706 10.1298 8.12142 12.753 6.22141C15.3761 4.3214 18.4709 3.17899 21.6991 2.91899C24.9274 2.65899 28.165 3.29139 31.0583 4.74712C33.9516 6.20284 36.3892 8.42589 38.105 11.1734C38.6024 11.9644 39.0371 12.7931 39.405 13.6521C40.0633 13.4986 40.7541 13.5715 41.3659 13.859C41.9776 14.1465 42.4747 14.6319 42.7767 15.2368C43.0939 15.9859 43.286 16.7821 43.3454 17.5935C43.5136 18.9955 43.5815 20.4077 43.5486 21.8194Z" fill="white"/>
</svg>
