<svg width="37" height="50" viewBox="0 0 37 50" fill="none" xmlns="http://www.w3.org/2000/svg">
<path d="M22.9175 0H36.3395V32.137L22.9175 0Z" fill="#FA0F00"/>
<path d="M13.4594 0H0.0253906V32.137L13.4594 0Z" fill="#FA0F00"/>
<path d="M18.1884 11.843L26.7404 32.135H21.1404L18.5764 25.669H12.3174L18.1884 11.843Z" fill="#FA0F00"/>
<path d="M4.69942 45.0229C4.44242 43.7159 3.98242 41.7459 3.79942 40.4749H3.78242C3.60242 41.7099 3.26842 43.4469 2.95842 45.0229H4.69942ZM2.56742 46.9389L1.97642 49.7329C1.95842 49.8409 1.92242 49.8589 1.83242 49.8589H0.13042C0.02242 49.8589 -0.01358 49.8229 0.00441996 49.6789L2.34942 39.5519C2.41807 39.2287 2.44229 38.8977 2.42142 38.5679C2.42021 38.5535 2.42217 38.5389 2.42716 38.5252C2.43216 38.5116 2.44008 38.4992 2.45036 38.4889C2.46064 38.4786 2.47304 38.4707 2.4867 38.4657C2.50035 38.4607 2.51493 38.4587 2.52942 38.4599H4.96342C5.05342 38.4599 5.08942 38.4959 5.10742 38.5859L7.84742 49.7069C7.86542 49.8149 7.82942 49.8509 7.73942 49.8509H5.83942C5.82149 49.8532 5.80328 49.8516 5.78599 49.8464C5.7687 49.8411 5.75273 49.8322 5.73913 49.8203C5.72552 49.8084 5.7146 49.7937 5.70706 49.7773C5.69953 49.7609 5.69556 49.743 5.69542 49.7249L5.06842 46.9309L2.56742 46.9389Z" fill="#FA0F00"/>
<path d="M12.3765 42.817C12.2511 42.7745 12.1186 42.7572 11.9865 42.766C10.9955 42.766 10.2525 43.666 10.2525 45.437C10.2525 47.312 10.9945 48.09 11.9685 48.09C12.1063 48.0908 12.2436 48.0726 12.3765 48.036V42.817ZM8.14648 45.506C8.14648 42.925 9.66948 40.924 12.0945 40.924H12.3775V37.883C12.3775 37.829 12.4105 37.793 12.4825 37.793H14.3825C14.4545 37.793 14.4695 37.829 14.4695 37.883V48.072C14.4586 48.4684 14.4767 48.8651 14.5235 49.259C14.5282 49.2843 14.5239 49.3105 14.5113 49.333C14.4987 49.3555 14.4786 49.3728 14.4545 49.382C13.6566 49.7807 12.7784 49.9924 11.8865 50.001C9.65148 50 8.14648 48.542 8.14648 45.506V45.506Z" fill="#FA0F00"/>
<path d="M17.6644 45.436C17.6644 47.08 18.0184 48.161 18.8154 48.161C19.6124 48.161 19.9484 47.239 19.9484 45.454C19.9484 43.79 19.6654 42.765 18.8334 42.765C18.1064 42.765 17.6644 43.595 17.6644 45.436ZM22.0304 45.436C22.0304 48.23 20.8614 50 18.8094 50C16.4984 50 15.5884 47.984 15.5884 45.418C15.5884 42.801 16.7574 40.923 18.8454 40.923C20.8454 40.923 22.0354 42.587 22.0354 45.436H22.0304Z" fill="#FA0F00"/>
<path d="M25.8725 42.801C25.657 42.798 25.4423 42.8273 25.2355 42.888V48.107C25.3574 48.1352 25.4824 48.1473 25.6075 48.143C26.4075 48.143 27.3415 47.329 27.3595 45.136C27.3775 43.417 26.6865 42.801 25.8725 42.801ZM25.1485 37.793C25.2175 37.793 25.2355 37.829 25.2355 37.901V41.032C25.5488 40.9603 25.8691 40.9241 26.1905 40.924C28.0295 40.924 29.4295 42.339 29.4295 45.082C29.4295 48.282 27.6055 50 25.3205 50C24.6232 50.0011 23.9299 49.8938 23.2655 49.682C23.2359 49.6717 23.2101 49.6527 23.1914 49.6276C23.1727 49.6025 23.1619 49.5723 23.1605 49.541V37.9C23.1593 37.8858 23.1612 37.8715 23.166 37.8581C23.1709 37.8446 23.1785 37.8324 23.1885 37.8222C23.1984 37.8119 23.2104 37.8039 23.2237 37.7987C23.237 37.7935 23.2512 37.7913 23.2655 37.792L25.1485 37.793Z" fill="#FA0F00"/>
<path d="M33.7994 44.283C33.9759 44.2936 34.1531 44.2875 34.3284 44.265C34.3431 44.1994 34.3492 44.1322 34.3464 44.065C34.3464 43.395 34.1354 42.686 33.4094 42.686C32.6834 42.686 32.4184 43.413 32.3304 44.278L33.7994 44.283ZM32.2944 45.947C32.2944 47.308 32.8084 48.14 34.2414 48.14C34.7014 48.1409 35.1573 48.0537 35.5844 47.883C35.6744 47.847 35.7284 47.847 35.7284 47.973V49.44C35.7284 49.566 35.6924 49.64 35.6024 49.671C35.0511 49.9116 34.4512 50.0205 33.8504 49.989C31.2504 49.989 30.2424 48.078 30.2424 45.589C30.2424 42.936 31.4114 40.917 33.4814 40.917C35.6564 40.917 36.2934 42.846 36.2934 44.417C36.2945 44.8612 36.2644 45.305 36.2034 45.745C36.1884 45.832 36.1344 45.868 36.0444 45.886C35.8694 45.904 35.3204 45.94 34.3644 45.94L32.2944 45.947Z" fill="#FA0F00"/>
</svg>
